<?xml version="1.0" encoding="UTF-8" standalone="no"?>
<!-- Created with Inkscape (http://www.inkscape.org/) -->

<svg
   version="1.1"
   id="svg2"

   viewBox="-350 0 1400 900"
   sodipodi:docname="coqueiro.svg"
   inkscape:version="1.2.2 (732a01da63, 2022-12-09)"
   xmlns:inkscape="http://www.inkscape.org/namespaces/inkscape"
   xmlns:sodipodi="http://sodipodi.sourceforge.net/DTD/sodipodi-0.dtd"
   xmlns="http://www.w3.org/2000/svg"
   xmlns:svg="http://www.w3.org/2000/svg">
  <defs
     id="defs6">
    <clipPath
       clipPathUnits="userSpaceOnUse"
       id="clipPath18">
      <path
         d="M 0,572.705 H 511.215 V 0 H 0 Z"
         id="path16" />
    </clipPath>
  </defs>
  <sodipodi:namedview
     id="namedview4"
     pagecolor="#ffffff"
     bordercolor="#000000"
     borderopacity="0.25"
     inkscape:showpageshadow="2"
     inkscape:pageopacity="0.0"
     inkscape:pagecheckerboard="0"
     inkscape:deskcolor="#d1d1d1"
     showgrid="false"
     inkscape:zoom="0.91277357"
     inkscape:cx="340.71977"
     inkscape:cy="382.35113"
     inkscape:window-width="1538"
     inkscape:window-height="877"
     inkscape:window-x="-8"
     inkscape:window-y="-8"
     inkscape:window-maximized="1"
     inkscape:current-layer="g10">
    <inkscape:page
       x="0"
       y="0"
       id="page8"
       width="681.62"
       height="763.60669" />
  </sodipodi:namedview>
  <g
     id="g10"
     inkscape:groupmode="layer"
     inkscape:label="Page 1"
     transform="matrix(1.3333333,0,0,-1.3333333,0,763.60667)">
    <g
       id="g12">
      <g
         id="g14"
         clip-path="url(#clipPath18)">
        <g
           id="g20"
           transform="translate(265.0198,402.3516)">
          <path
             d="M 0,0 C 0,0 102.52,163.17 233.995,32.869 233.995,32.869 80.606,52.434 0,0"
             style="fill:#6dbe45;fill-opacity:1;fill-rule:nonzero;stroke:none"
             id="path22" />
        </g>
        <g
           id="g24"
           transform="translate(268.9524,408.0977)">
          <path
             d="m 0,0 c -0.627,-0.873 -1.183,-1.663 -1.662,-2.355 0.075,-0.435 0.179,-1.024 0.308,-1.771 81.25,50.393 231.416,31.249 231.416,31.249 -0.611,0.605 -1.219,1.191 -1.829,1.784 -2.139,1.045 -4.306,2.118 -6.604,3.067 C 110.707,77.755 14.004,11.355 0,0"
             style="fill:#ffffff;fill-opacity:1;fill-rule:nonzero;stroke:none"
             id="path26" />
        </g>
        <g
           id="g28"
           transform="translate(260.7151,396.4819)">
          <path
             d="m 0,0 c 0,0 -162.583,-14.673 -205.43,-79.237 0,0 38.738,168.062 205.43,79.237"
             style="fill:#6dbe45;fill-opacity:1;fill-rule:nonzero;stroke:none"
             id="path30" />
        </g>
        <g
           id="g32"
           transform="translate(257.1936,402.3516)">
          <path
             d="m 0,0 c 0,0 -44.607,190.17 -246.516,84.52 0,0 159.648,1.174 246.516,-84.52"
             style="fill:#6dbe45;fill-opacity:1;fill-rule:nonzero;stroke:none"
             id="path34" />
        </g>
        <g
           id="g36"
           transform="translate(260.7151,396.4819)">
          <path
             d="M 0,0 C 0,0 201.909,51.651 190.17,-160.822 190.17,-160.822 126.389,-25.434 0,0"
             style="fill:#6dbe45;fill-opacity:1;fill-rule:nonzero;stroke:none"
             id="path38" />
        </g>
        <g
           id="g40"
           transform="translate(299.0295,393.3799)">
          <path
             d="M 0,0 C -25.698,-0.665 -38.314,3.102 -38.314,3.102 88.074,-22.332 151.855,-157.72 151.855,-157.72 c 0.531,9.585 -6.694,23.453 -6.996,31.993 C 129.667,-98.228 93.84,-15.944 0,0"
             style="fill:#ffffff;fill-opacity:1;fill-rule:nonzero;stroke:none"
             id="path42" />
        </g>
        <g
           id="g44"
           transform="translate(257.1936,402.3516)">
          <path
             d="M 0,0 C 0,0 -42.26,137.736 107.216,157.301 107.216,157.301 23.478,101.737 0,0"
             style="fill:#6dbe45;fill-opacity:1;fill-rule:nonzero;stroke:none"
             id="path46" />
        </g>
        <g
           id="g48"
           transform="translate(257.1936,402.3516)">
          <path
             d="m 0,0 c 0,0 -130.189,-173.819 -130.189,-392.152 h 78.538 c 0,0 -38.252,97.614 51.651,392.152"
             style="fill:#f68e49;fill-opacity:1;fill-rule:nonzero;stroke:none"
             id="path50" />
        </g>
        <g
           id="g52"
           transform="translate(257.1936,402.3516)">
          <path
             d="M 0,0 C 0,0 -3.718,-4.968 -9.883,-14.249 -104.72,-253.904 -76.83,-392.151 -76.83,-392.151 h 25.179 c 0,0 -38.252,97.613 51.651,392.151"
             style="fill:#ffffff;fill-opacity:1;fill-rule:nonzero;stroke:none"
             id="path54" />
        </g>
        <g
           id="g56"
           transform="translate(172.1565,414.1904)">
          <path
             d="M 0,0 C -14.722,0 -28.367,-2.845 -40.879,-8.543 -68.079,-20.93 -85.366,-44.777 -95.702,-64.848 -51.193,-33.587 20.174,-19.058 59.587,-13.1 38.147,-4.371 18.249,0 0,0 m -116.875,-105.147 c -1.086,0 -2.186,0.216 -3.236,0.669 -3.641,1.565 -5.64,5.512 -4.75,9.374 0.697,3.027 17.766,74.426 77.185,101.486 38.807,17.669 85.94,12.001 140.09,-16.854 3.2,-1.705 4.899,-5.309 4.182,-8.863 -0.72,-3.553 -3.688,-6.213 -7.299,-6.54 -1.587,-0.144 -159.163,-15.069 -199.337,-75.604 -1.558,-2.351 -4.155,-3.668 -6.835,-3.668"
             style="fill:#4a4742;fill-opacity:1;fill-rule:nonzero;stroke:none"
             id="path58" />
        </g>
        <g
           id="g60"
           transform="translate(43.9148,493.394)">
          <path
             d="M 0,0 C 15.875,-1.396 36.36,-3.95 59.094,-8.614 98.727,-16.747 151.517,-32.888 194.82,-64.651 183.907,-41.292 163.334,-9.44 127.976,6.692 92.797,22.741 49.847,20.471 0,0 m 213.281,-99.242 c -2.104,0 -4.186,0.808 -5.761,2.362 -83.482,82.356 -239.141,82.128 -240.697,82.158 -3.759,-0.078 -7.099,2.54 -8.016,6.213 -0.916,3.674 0.799,7.498 4.154,9.253 67.309,35.217 125.164,42.218 171.955,20.807 66.865,-30.598 85.582,-107.464 86.346,-110.721 0.834,-3.557 -0.785,-7.236 -3.971,-9.023 -1.258,-0.706 -2.638,-1.049 -4.01,-1.049"
             style="fill:#4a4742;fill-opacity:1;fill-rule:nonzero;stroke:none"
             id="path62" />
        </g>
        <g
           id="g64"
           transform="translate(395.175,477.4834)">
          <path
             d="m 0,0 c -3.848,0 -7.694,-0.222 -11.54,-0.663 -38.252,-4.398 -69.427,-29.784 -89.023,-50.579 61.781,23.565 140.792,22.11 180.492,19.406 C 53.524,-10.67 26.748,0 0,0 m -130.153,-83.332 c -2.097,0 -4.176,0.802 -5.755,2.356 -2.744,2.701 -3.239,6.946 -1.191,10.206 1.995,3.177 49.732,77.897 123.686,86.399 41.907,4.806 83.302,-12.699 123.025,-52.068 2.495,-2.473 3.138,-6.26 1.598,-9.418 -1.54,-3.156 -4.918,-4.982 -8.405,-4.54 -1.507,0.193 -151.368,18.56 -228.491,-31.608 -1.369,-0.891 -2.921,-1.327 -4.467,-1.327"
             style="fill:#4a4742;fill-opacity:1;fill-rule:nonzero;stroke:none"
             id="path66" />
        </g>
        <g
           id="g68"
           transform="translate(299.4807,393.4741)">
          <path
             d="m 0,0 c 39.763,-15.732 77.23,-43.451 109.939,-81.604 14.294,-16.671 25.417,-32.631 33.419,-45.333 -2.322,45.1 -16.538,78.629 -42.426,99.9 C 70.454,-1.997 29.332,1.522 0,0 m 151.402,-166.014 c -3.127,0 -6.043,1.794 -7.415,4.706 -0.155,0.327 -16.028,33.584 -46.794,69.375 -28.078,32.664 -74.738,74.256 -137.576,86.903 -3.75,0.754 -6.481,4.001 -6.579,7.826 -0.099,3.823 2.458,7.207 6.164,8.155 0.934,0.239 22.951,5.784 52.3,5.784 0.355,0 0.71,-10e-4 1.066,-0.003 40.08,-0.184 74.235,-10.936 98.773,-31.097 35.673,-29.309 51.907,-77.724 48.252,-143.902 -0.209,-3.748 -2.934,-6.876 -6.618,-7.595 -0.527,-0.102 -1.053,-0.152 -1.573,-0.152"
             style="fill:#4a4742;fill-opacity:1;fill-rule:nonzero;stroke:none"
             id="path70" />
        </g>
        <g
           id="g72"
           transform="translate(332.7776,544.4346)">
          <path
             d="M 0,0 C -25.761,-8.225 -44.883,-21.859 -57.056,-40.736 -70.596,-61.731 -73.402,-86.015 -72.758,-105.271 -53.621,-56.277 -22.451,-20.867 0,0 m -75.587,-150.283 c -3.589,0 -6.777,2.341 -7.837,5.795 -0.788,2.573 -18.969,63.569 12.514,112.527 19.58,30.45 53.723,49.058 101.477,55.31 3.788,0.499 7.407,-1.685 8.743,-5.258 1.336,-3.572 0.034,-7.596 -3.146,-9.704 -0.805,-0.537 -81.331,-55.126 -103.759,-152.315 -0.834,-3.614 -3.991,-6.219 -7.699,-6.349 -0.097,-0.005 -0.195,-0.006 -0.293,-0.006"
             style="fill:#4a4742;fill-opacity:1;fill-rule:nonzero;stroke:none"
             id="path74" />
        </g>
        <g
           id="g76"
           transform="translate(135.2669,18.3994)">
          <path
             d="M 0,0 H 59.501 C 52.714,30.54 41.771,126.539 98.246,331.825 87.925,314.058 75.981,291.793 64.097,265.924 35.549,203.78 1.655,107.805 0,0 M 70.276,-16.399 H -8.263 c -4.529,0 -8.199,3.67 -8.199,8.199 0,114.268 35.807,216.086 65.845,281.378 32.537,70.725 64.631,113.886 65.98,115.689 2.389,3.19 6.724,4.199 10.274,2.397 3.552,-1.802 5.296,-5.896 4.132,-9.706 C 104.524,298.852 73.775,179.287 70.647,79.354 c -1.87,-59.748 7.187,-84.362 7.279,-84.603 0.956,-2.52 0.622,-5.369 -0.909,-7.587 -1.531,-2.218 -4.046,-3.563 -6.741,-3.563"
             style="fill:#4a4742;fill-opacity:1;fill-rule:nonzero;stroke:none"
             id="path78" />
        </g>
      </g>
    </g>
  </g>
</svg>
